<?xml version="1.0" encoding="utf-8"?>
<!-- Generator: Adobe Illustrator 16.0.3, SVG Export Plug-In . SVG Version: 6.00 Build 0)  -->
<!DOCTYPE svg PUBLIC "-//W3C//DTD SVG 1.1//EN" "http://www.w3.org/Graphics/SVG/1.1/DTD/svg11.dtd">
<svg version="1.1" id="Layer_1" xmlns="http://www.w3.org/2000/svg" xmlns:xlink="http://www.w3.org/1999/xlink" x="0px" y="0px"
	 width="242.199px" height="37.707px" viewBox="0 0 242.199 37.707" enable-background="new 0 0 242.199 37.707"
	 xml:space="preserve">
<g>
	<path fill="#FFFFFF" d="M16.5,0C7.389,0,0,7.388,0,16.5S7.389,33,16.5,33S33,25.613,33,16.5S25.611,0,16.5,0z M3.174,16.046
		C2.463,9.509,8.082,3.534,15.729,2.701c0.409-0.044,0.816-0.071,1.221-0.084C10.124,4.108,5.361,10.238,6.095,16.973
		c0.362,3.322,2.003,6.211,4.407,8.287C6.508,23.553,3.625,20.185,3.174,16.046z M16.5,8.896c4.199,0,7.602,3.404,7.602,7.604
		c0,4.198-3.402,7.603-7.602,7.603S8.898,20.699,8.898,16.5C8.898,12.301,12.301,8.896,16.5,8.896z M22.643,27.771
		c-4.587,3.662-11.233,3.334-14.844-0.734c-0.194-0.218-0.372-0.443-0.541-0.674c3.78,3.261,10.207,3.01,14.932-0.764
		c2.331-1.863,3.84-4.26,4.445-6.7C26.927,22.087,25.546,25.451,22.643,27.771z M28.717,22.177
		c1.906-4.693-0.409-10.765-5.551-14.052c-2.537-1.622-5.32-2.28-7.854-2.057c2.962-1.328,6.63-1.11,9.79,0.909
		c4.99,3.191,6.82,9.666,4.087,14.461C29.043,21.697,28.883,21.941,28.717,22.177z"/>
	<g>
		<g>
			<path fill="#FFFFFF" d="M66.114,21.267l-0.145,3.085c-2.136,0.932-4.065,1.397-5.788,1.397c-2.725,0-4.944-0.859-6.658-2.578
				c-1.714-1.718-2.571-3.935-2.571-6.651c0-2.918,0.929-5.295,2.789-7.132c1.858-1.837,4.243-2.755,7.152-2.755
				c1.485,0,3.072,0.25,4.759,0.751v3.177c-1.813-1.116-3.515-1.674-5.108-1.674c-2.059,0-3.687,0.724-4.883,2.171
				c-1.118,1.342-1.676,3.066-1.676,5.172c0,2.062,0.523,3.755,1.57,5.08c1.144,1.457,2.719,2.185,4.725,2.185
				C62.102,23.495,64.046,22.752,66.114,21.267z"/>
			<path fill="#FFFFFF" d="M79.363,18.696c0,1.898-0.554,3.524-1.661,4.878c-1.178,1.45-2.698,2.175-4.562,2.175
				c-1.749,0-3.177-0.65-4.285-1.951c-1.055-1.23-1.582-2.733-1.582-4.509c0-1.969,0.563-3.612,1.688-4.931
				c1.195-1.389,2.764-2.083,4.707-2.083c1.749,0,3.155,0.646,4.219,1.938C78.871,15.417,79.363,16.912,79.363,18.696z M76.7,19.328
				c0-1.271-0.333-2.419-0.998-3.445c-0.762-1.174-1.747-1.762-2.955-1.762c-0.123,0-0.311,0.013-0.565,0.04
				c-1.506,0.762-2.259,2.183-2.259,4.26c0,1.324,0.333,2.538,0.998,3.642c0.779,1.289,1.777,1.902,2.994,1.841l0.578-0.026
				C75.965,22.895,76.7,21.379,76.7,19.328z"/>
			<path fill="#FFFFFF" d="M92.072,25.472H88.46c0.343-0.818,0.514-2.011,0.514-3.577V17.46c0-0.907-0.109-1.553-0.328-1.94
				c-0.297-0.545-0.87-0.818-1.717-0.818c-0.638,0-1.503,0.286-2.596,0.858v5.914c0,1.566,0.171,2.899,0.514,4h-3.612
				c0.246-0.8,0.396-1.406,0.448-1.819c0.044-0.316,0.066-0.954,0.066-1.912v-4.865c0-1.573-0.171-3.015-0.514-4.324h3.098v2.333
				l1.991-2.281c0.623-0.22,1.197-0.33,1.723-0.33c1.376,0,2.35,0.545,2.919,1.635c0.447,0.87,0.671,2.167,0.671,3.889v4.153
				C91.637,23.455,91.782,24.628,92.072,25.472z"/>
			<path fill="#FFFFFF" d="M101.604,22.849l-0.978,2.505c-0.916,0.264-1.748,0.396-2.497,0.396c-1.489,0-2.422-0.571-2.801-1.712
				c-0.159-0.491-0.238-1.69-0.238-3.595v-6.044h-1.833l4.417-4.562v2.716h3.059v1.846h-3.059v5.985
				c0,0.993,0.066,1.674,0.198,2.043c0.246,0.677,0.769,1.015,1.569,1.015C100.18,23.442,100.901,23.244,101.604,22.849z"/>
			<path fill="#FFFFFF" d="M114.023,18.696c0,1.898-0.555,3.524-1.662,4.878c-1.178,1.45-2.697,2.175-4.561,2.175
				c-1.749,0-3.177-0.65-4.285-1.951c-1.055-1.23-1.582-2.733-1.582-4.509c0-1.969,0.563-3.612,1.688-4.931
				c1.195-1.389,2.764-2.083,4.707-2.083c1.749,0,3.155,0.646,4.219,1.938C113.531,15.417,114.023,16.912,114.023,18.696z
				 M111.359,19.328c0-1.271-0.332-2.419-0.998-3.445c-0.762-1.174-1.746-1.762-2.954-1.762c-0.123,0-0.311,0.013-0.565,0.04
				c-1.506,0.762-2.259,2.183-2.259,4.26c0,1.324,0.333,2.538,0.998,3.642c0.779,1.289,1.777,1.902,2.994,1.841l0.579-0.026
				C110.625,22.895,111.359,21.379,111.359,19.328z"/>
			<path fill="#FFFFFF" d="M122.658,22.022c0,1.194-0.461,2.129-1.385,2.805c-0.826,0.615-1.854,0.922-3.084,0.922
				c-0.598,0-1.587-0.15-2.967-0.45v-3.215c1.209,1.213,2.227,1.819,3.051,1.819c0.455,0,0.855-0.149,1.202-0.448
				c0.347-0.298,0.52-0.676,0.52-1.132c0-0.536-0.386-1.133-1.157-1.791c-1.41-1.185-2.129-1.795-2.155-1.831
				c-0.78-0.825-1.17-1.712-1.17-2.66c0-1.115,0.466-2.037,1.397-2.766c0.853-0.667,1.854-1,3.006-1
				c0.756,0,1.564,0.168,2.426,0.503v2.516c-0.902-0.782-1.695-1.173-2.379-1.173c-0.465,0-0.867,0.123-1.209,0.369
				c-0.386,0.281-0.578,0.646-0.578,1.093c0,0.579,0.385,1.203,1.156,1.87l2.156,1.844C122.268,20.122,122.658,21.03,122.658,22.022
				z"/>
			<path fill="#FFFFFF" d="M136.079,18.696c0,1.898-0.554,3.524-1.661,4.878c-1.178,1.45-2.698,2.175-4.562,2.175
				c-1.749,0-3.177-0.65-4.284-1.951c-1.055-1.23-1.582-2.733-1.582-4.509c0-1.969,0.563-3.612,1.688-4.931
				c1.195-1.389,2.764-2.083,4.706-2.083c1.749,0,3.155,0.646,4.219,1.938C135.587,15.417,136.079,16.912,136.079,18.696z
				 M133.416,19.328c0-1.271-0.332-2.419-0.998-3.445c-0.762-1.174-1.746-1.762-2.955-1.762c-0.123,0-0.311,0.013-0.564,0.04
				c-1.506,0.762-2.259,2.183-2.259,4.26c0,1.324,0.333,2.538,0.998,3.642c0.779,1.289,1.777,1.902,2.994,1.841l0.578-0.026
				C132.681,22.895,133.416,21.379,133.416,19.328z"/>
			<path fill="#FFFFFF" d="M147.229,24.419c-0.028,0.215-0.096,0.391-0.203,0.526c-0.107,0.136-0.236,0.244-0.387,0.322
				c-0.15,0.079-0.313,0.134-0.484,0.167s-0.336,0.048-0.494,0.048c-0.186,0-0.367-0.02-0.542-0.059
				c-0.176-0.039-0.331-0.1-0.468-0.183c-0.136-0.082-0.243-0.183-0.322-0.301c-0.078-0.118-0.117-0.252-0.117-0.403
				c0-0.293,0.014-0.564,0.043-0.811c0.027-0.247,0.07-0.496,0.129-0.747c0.199-0.838,0.375-1.617,0.525-2.336
				s0.279-1.402,0.387-2.046s0.201-1.269,0.279-1.875c0.079-0.605,0.148-1.214,0.21-1.826c0.061-0.612,0.116-1.244,0.167-1.896
				c0.049-0.651,0.104-1.35,0.16-2.095c0-0.064,0-0.146,0-0.247c0-0.1-0.01-0.195-0.031-0.285c-0.021-0.089-0.06-0.167-0.113-0.231
				s-0.135-0.097-0.242-0.097c-0.172,0-0.381,0.059-0.628,0.177s-0.507,0.278-0.778,0.478c-0.273,0.201-0.545,0.435-0.816,0.704
				c-0.273,0.269-0.523,0.557-0.752,0.865c-0.043,0.107-0.111,0.185-0.205,0.231c-0.092,0.047-0.196,0.07-0.311,0.07
				c-0.036,0-0.074-0.03-0.113-0.091c-0.039-0.061-0.075-0.134-0.107-0.22s-0.059-0.177-0.08-0.274s-0.033-0.184-0.033-0.263
				c0-0.043,0.016-0.079,0.043-0.107c0.258-0.845,0.551-1.552,0.876-2.122s0.669-1.024,1.031-1.364
				c0.361-0.34,0.73-0.582,1.106-0.725c0.376-0.143,0.736-0.215,1.08-0.215c0.443,0,0.813,0.084,1.105,0.252
				c0.294,0.168,0.527,0.405,0.699,0.709c0.172,0.305,0.291,0.671,0.359,1.101s0.102,0.906,0.102,1.429
				c0,0.401-0.031,0.87-0.096,1.407s-0.146,1.101-0.242,1.692s-0.203,1.184-0.316,1.778c-0.115,0.595-0.227,1.149-0.334,1.665
				c0.229-0.952,0.5-1.867,0.812-2.745c0.312-0.877,0.651-1.697,1.021-2.46s0.761-1.454,1.176-2.073
				c0.416-0.619,0.844-1.151,1.284-1.595c0.44-0.444,0.886-0.788,1.337-1.031c0.451-0.243,0.898-0.365,1.344-0.365
				c0.328,0,0.633,0.072,0.912,0.215c0.279,0.144,0.52,0.365,0.721,0.666c0.199,0.301,0.355,0.681,0.467,1.139
				c0.111,0.458,0.166,1.003,0.166,1.633c0,0.058-0.005,0.147-0.016,0.269c-0.011,0.122-0.025,0.262-0.043,0.419
				c-0.018,0.158-0.039,0.328-0.064,0.51s-0.049,0.364-0.07,0.542c-0.057,0.43-0.117,0.896-0.182,1.396l0.225-0.011
				c0.279-1.06,0.623-2.012,1.031-2.857c0.408-0.845,0.867-1.563,1.375-2.154c0.509-0.591,1.057-1.043,1.645-1.359
				c0.586-0.315,1.195-0.473,1.826-0.473c0.436,0,0.824,0.129,1.165,0.387c0.34,0.258,0.624,0.607,0.854,1.047
				c0.229,0.44,0.404,0.956,0.525,1.547c0.122,0.591,0.184,1.216,0.184,1.875c0,0.616-0.042,1.248-0.124,1.896
				c-0.083,0.648-0.185,1.289-0.306,1.923c-0.123,0.634-0.253,1.255-0.393,1.864c-0.14,0.609-0.271,1.186-0.393,1.729
				c-0.121,0.544-0.224,1.047-0.306,1.509c-0.083,0.462-0.124,0.861-0.124,1.198c0,0.423,0.077,0.729,0.231,0.918
				c0.153,0.19,0.378,0.285,0.671,0.285c0.165,0,0.339-0.044,0.521-0.134c0.183-0.089,0.365-0.208,0.548-0.354
				c0.183-0.146,0.363-0.315,0.542-0.505c0.18-0.189,0.352-0.385,0.516-0.585c0.38-0.458,0.756-0.984,1.129-1.579
				c0,0.007,0.031,0.083,0.096,0.226c0.051,0.122,0.133,0.33,0.248,0.623c0.113,0.294,0.275,0.716,0.482,1.268
				c-0.357,0.63-0.727,1.164-1.105,1.601c-0.381,0.437-0.768,0.793-1.16,1.069c-0.395,0.276-0.794,0.475-1.198,0.596
				c-0.405,0.122-0.808,0.183-1.208,0.183c-0.387,0-0.766-0.068-1.134-0.204c-0.369-0.136-0.696-0.338-0.983-0.607
				c-0.286-0.269-0.516-0.602-0.688-0.999s-0.258-0.854-0.258-1.37c0-0.057,0.002-0.118,0.006-0.183s0.009-0.129,0.016-0.193
				c0.029-0.479,0.09-0.99,0.184-1.531c0.092-0.541,0.198-1.097,0.316-1.67c0.118-0.573,0.242-1.156,0.371-1.751
				c0.129-0.594,0.246-1.187,0.354-1.778s0.197-1.174,0.27-1.751c0.07-0.576,0.107-1.129,0.107-1.66
				c0-0.322-0.012-0.614-0.033-0.875c-0.021-0.261-0.064-0.483-0.129-0.666s-0.157-0.324-0.279-0.424
				c-0.121-0.1-0.283-0.15-0.482-0.15c-0.381,0-0.738,0.133-1.074,0.397c-0.338,0.265-0.656,0.63-0.957,1.096
				c-0.301,0.466-0.582,1.017-0.843,1.654c-0.262,0.638-0.509,1.327-0.741,2.068s-0.449,1.519-0.65,2.331
				c-0.2,0.813-0.387,1.631-0.559,2.455c-0.172,0.824-0.332,1.637-0.482,2.438c-0.15,0.802-0.291,1.562-0.42,2.277
				c-0.057,0.201-0.145,0.371-0.263,0.51s-0.255,0.252-0.408,0.338c-0.154,0.086-0.317,0.149-0.489,0.188
				c-0.172,0.04-0.344,0.059-0.516,0.059c-0.15,0-0.299-0.028-0.445-0.086c-0.146-0.057-0.275-0.148-0.387-0.274
				c-0.111-0.125-0.201-0.285-0.269-0.478c-0.068-0.193-0.103-0.43-0.103-0.709c0-0.186,0.043-0.506,0.129-0.961
				c0.086-0.455,0.195-0.999,0.328-1.633s0.275-1.328,0.43-2.084c0.154-0.755,0.297-1.525,0.43-2.31s0.242-1.559,0.328-2.326
				c0.086-0.766,0.129-1.472,0.129-2.116c0-0.444-0.012-0.841-0.033-1.192c-0.021-0.351-0.071-0.648-0.15-0.892
				c-0.078-0.243-0.191-0.43-0.338-0.559s-0.342-0.193-0.586-0.193c-0.2,0-0.43,0.136-0.688,0.408
				c-0.258,0.272-0.535,0.648-0.832,1.128c-0.297,0.48-0.604,1.044-0.918,1.692c-0.316,0.648-0.629,1.348-0.94,2.1
				s-0.612,1.538-0.902,2.358c-0.29,0.82-0.558,1.64-0.8,2.46c-0.244,0.82-0.459,1.622-0.645,2.406
				C147.461,22.996,147.322,23.732,147.229,24.419z"/>
			<path fill="#FFFFFF" d="M175.648,15.598c0.256,0.51,0.446,1.048,0.574,1.615c0.127,0.567,0.191,1.11,0.191,1.628
				s-0.058,1.042-0.172,1.569s-0.279,1.037-0.494,1.529c-0.216,0.492-0.479,0.954-0.791,1.384c-0.313,0.431-0.668,0.804-1.068,1.121
				s-0.837,0.567-1.312,0.751s-0.979,0.277-1.517,0.277c-0.773,0-1.435-0.169-1.984-0.508c-0.549-0.338-0.999-0.78-1.351-1.325
				s-0.608-1.16-0.771-1.846c-0.164-0.686-0.244-1.38-0.244-2.083c0-0.967,0.145-1.87,0.435-2.709
				c0.29-0.839,0.706-1.568,1.245-2.188c0.541-0.619,1.203-1.107,1.984-1.463c0.783-0.356,1.662-0.534,2.637-0.534
				c0.836,0,1.617,0.13,2.348,0.389c0.729,0.26,1.412,0.606,2.049,1.042c0.638,0.435,1.23,0.934,1.781,1.496
				c0.549,0.563,1.061,1.143,1.535,1.74l-0.25,1.859c-0.238-0.316-0.559-0.659-0.963-1.028s-0.833-0.729-1.285-1.081
				c-0.453-0.352-0.898-0.683-1.338-0.996c-0.439-0.312-0.818-0.573-1.135-0.784L175.648,15.598z M171.575,22.941
				c0.299,0,0.589-0.151,0.87-0.455c0.281-0.303,0.527-0.686,0.738-1.146c0.211-0.462,0.38-0.971,0.508-1.529
				c0.127-0.558,0.191-1.092,0.191-1.602c0-0.404-0.031-0.78-0.093-1.127c-0.062-0.347-0.153-0.648-0.276-0.903
				s-0.281-0.457-0.475-0.606s-0.427-0.224-0.699-0.224c-0.36,0-0.703,0.154-1.028,0.461s-0.61,0.701-0.856,1.18
				s-0.439,1.008-0.58,1.588s-0.211,1.138-0.211,1.674c0,0.369,0.035,0.716,0.105,1.042s0.18,0.609,0.329,0.85
				c0.149,0.242,0.347,0.436,0.593,0.58C170.938,22.869,171.232,22.941,171.575,22.941z"/>
			<path fill="#FFFFFF" d="M184.548,23.007c0-0.114,0.009-0.277,0.026-0.488s0.044-0.453,0.079-0.725s0.075-0.56,0.118-0.864
				c0.045-0.303,0.088-0.604,0.133-0.903c0.096-0.703,0.215-1.459,0.355-2.268h-0.197c-0.105,0.132-0.227,0.33-0.363,0.593
				s-0.327,0.65-0.573,1.16s-0.561,1.171-0.942,1.984c-0.383,0.813-0.877,1.83-1.483,3.052c-0.176,0.36-0.38,0.604-0.613,0.731
				c-0.233,0.128-0.489,0.191-0.771,0.191c-0.361,0-0.65-0.077-0.871-0.23c-0.219-0.154-0.389-0.36-0.507-0.62
				c-0.119-0.259-0.198-0.554-0.237-0.883c-0.04-0.33-0.06-0.67-0.06-1.022c0-0.36,0.022-0.787,0.065-1.279
				c0.045-0.492,0.102-1.011,0.172-1.556s0.151-1.101,0.244-1.668c0.092-0.566,0.188-1.109,0.29-1.628
				c0.101-0.519,0.204-0.993,0.31-1.424s0.202-0.782,0.29-1.055c0.088-0.281,0.171-0.505,0.251-0.672
				c0.078-0.167,0.168-0.296,0.27-0.389c0.102-0.092,0.223-0.153,0.363-0.185c0.141-0.03,0.32-0.046,0.54-0.046
				c0.334,0,0.595,0.011,0.784,0.033s0.33,0.075,0.422,0.158c0.093,0.083,0.147,0.204,0.165,0.362s0.026,0.374,0.026,0.646
				c0,0.149-0.007,0.321-0.02,0.514c-0.014,0.193-0.033,0.4-0.06,0.62s-0.056,0.446-0.086,0.679s-0.063,0.459-0.099,0.679
				c-0.079,0.519-0.162,1.055-0.25,1.608l0.145,0.158c0.018-0.026,0.112-0.193,0.283-0.501c0.172-0.308,0.383-0.677,0.633-1.107
				c0.251-0.431,0.521-0.881,0.811-1.352c0.291-0.47,0.567-0.885,0.831-1.246c0.255-0.36,0.524-0.659,0.811-0.896
				s0.626-0.356,1.022-0.356c0.369,0,0.686,0.108,0.949,0.323s0.395,0.521,0.395,0.916c0,0.343-0.021,0.668-0.065,0.976
				s-0.099,0.606-0.165,0.896c-0.065,0.29-0.134,0.573-0.204,0.851c-0.07,0.276-0.136,0.56-0.198,0.85
				c-0.043,0.202-0.07,0.33-0.078,0.382c-0.01,0.053-0.014,0.088-0.014,0.105l0.145,0.158c0.018-0.026,0.119-0.191,0.304-0.494
				c0.185-0.304,0.411-0.67,0.679-1.101s0.554-0.883,0.857-1.358c0.303-0.475,0.586-0.892,0.85-1.252
				c0.256-0.352,0.51-0.648,0.766-0.89c0.254-0.241,0.566-0.362,0.936-0.362c0.413,0,0.762,0.108,1.048,0.323
				s0.429,0.521,0.429,0.916c0,0.606-0.031,1.182-0.092,1.727c-0.063,0.545-0.133,1.081-0.211,1.608
				c-0.08,0.527-0.15,1.061-0.211,1.602c-0.063,0.54-0.093,1.114-0.093,1.72c0,0.475,0.062,0.861,0.185,1.16
				s0.272,0.448,0.448,0.448c0.185,0,0.378-0.04,0.58-0.119s0.409-0.18,0.62-0.303s0.417-0.266,0.619-0.428s0.396-0.332,0.58-0.508
				c0.431-0.404,0.857-0.861,1.279-1.371l0.224,3.111c-0.387,0.308-0.771,0.626-1.153,0.956c-0.383,0.329-0.787,0.628-1.213,0.896
				c-0.427,0.268-0.895,0.487-1.404,0.659c-0.51,0.171-1.086,0.257-1.727,0.257c-0.316,0-0.583-0.103-0.798-0.31
				c-0.216-0.207-0.39-0.495-0.521-0.864c-0.133-0.369-0.227-0.804-0.284-1.305s-0.085-1.046-0.085-1.635
				c0-0.554,0.02-1.141,0.059-1.76c0.04-0.62,0.095-1.246,0.165-1.879h-0.198l-2.676,6.816c-0.229,0.369-0.483,0.618-0.765,0.745
				c-0.281,0.128-0.606,0.191-0.976,0.191c-0.281,0-0.506-0.077-0.672-0.23c-0.168-0.154-0.297-0.352-0.39-0.594
				c-0.092-0.241-0.153-0.507-0.185-0.797S184.548,23.279,184.548,23.007z"/>
			<path fill="#FFFFFF" d="M200.816,25.472c-0.826,0-1.549-0.149-2.169-0.448c-0.619-0.299-1.136-0.701-1.549-1.206
				s-0.724-1.09-0.93-1.754c-0.206-0.663-0.31-1.36-0.31-2.089c0-0.492,0.049-1.013,0.145-1.562
				c0.098-0.549,0.244-1.088,0.442-1.615c0.197-0.527,0.446-1.03,0.745-1.51c0.299-0.479,0.647-0.9,1.048-1.266
				c0.399-0.364,0.848-0.654,1.345-0.87c0.496-0.215,1.048-0.323,1.654-0.323c0.492,0,0.949,0.079,1.371,0.237
				s0.789,0.38,1.101,0.666c0.312,0.286,0.556,0.631,0.731,1.035s0.264,0.857,0.264,1.358c0,0.545-0.134,1.09-0.401,1.635
				c-0.269,0.545-0.64,1.059-1.114,1.542s-1.039,0.914-1.694,1.292s-1.364,0.672-2.129,0.883c0.132,0.237,0.261,0.435,0.389,0.593
				s0.257,0.281,0.39,0.369c0.131,0.088,0.27,0.149,0.415,0.185c0.145,0.035,0.301,0.053,0.468,0.053
				c0.527,0,1.083-0.105,1.668-0.316c0.584-0.211,1.153-0.475,1.707-0.791s1.076-0.661,1.568-1.035
				c0.492-0.373,0.91-0.727,1.253-1.061l1.7,1.767c-0.773,0.8-1.595,1.507-2.465,2.123c-0.378,0.264-0.784,0.523-1.22,0.778
				c-0.435,0.255-0.892,0.481-1.371,0.679c-0.479,0.197-0.976,0.355-1.489,0.475C201.864,25.413,201.344,25.472,200.816,25.472z
				 M199.063,19.276c0.316,0,0.662-0.081,1.035-0.244c0.373-0.162,0.721-0.371,1.042-0.626c0.32-0.255,0.591-0.532,0.811-0.831
				s0.329-0.589,0.329-0.87c0-0.396-0.072-0.721-0.217-0.976c-0.146-0.255-0.323-0.382-0.534-0.382c-0.378,0-0.701,0.07-0.969,0.211
				c-0.269,0.141-0.493,0.323-0.673,0.547c-0.18,0.225-0.325,0.479-0.435,0.765c-0.11,0.286-0.194,0.574-0.251,0.864
				s-0.094,0.571-0.111,0.844S199.063,19.083,199.063,19.276z"/>
			<path fill="#FFFFFF" d="M206.736,22.717c0-0.58,0.035-1.25,0.105-2.01s0.158-1.534,0.264-2.32s0.224-1.545,0.355-2.274
				s0.26-1.354,0.383-1.872c0.096-0.404,0.283-0.743,0.561-1.015c0.275-0.272,0.652-0.409,1.127-0.409s0.804,0.145,0.988,0.435
				s0.277,0.677,0.277,1.16c0,0.132-0.014,0.31-0.04,0.534c-0.026,0.225-0.06,0.471-0.099,0.738
				c-0.039,0.269-0.082,0.545-0.125,0.831c-0.045,0.286-0.086,0.549-0.125,0.791c-0.041,0.242-0.073,0.453-0.1,0.633
				s-0.039,0.301-0.039,0.362h0.264c0.053-0.097,0.136-0.252,0.25-0.468s0.246-0.464,0.396-0.745s0.31-0.578,0.481-0.89
				s0.332-0.611,0.48-0.896c0.15-0.286,0.286-0.539,0.409-0.758s0.216-0.382,0.276-0.488c0.281-0.475,0.603-0.8,0.963-0.976
				s0.76-0.264,1.199-0.264s0.789,0.185,1.049,0.554c0.259,0.369,0.389,0.879,0.389,1.529c0,0.097-0.02,0.259-0.059,0.488
				c-0.041,0.229-0.091,0.501-0.152,0.817s-0.13,0.664-0.205,1.042c-0.074,0.378-0.143,0.765-0.203,1.16
				c-0.063,0.396-0.113,0.787-0.152,1.173s-0.059,0.743-0.059,1.068c0,0.545,0.067,0.993,0.203,1.345
				c0.137,0.352,0.35,0.527,0.641,0.527c0.131,0,0.283-0.04,0.455-0.119c0.17-0.079,0.355-0.182,0.553-0.31
				c0.197-0.127,0.4-0.274,0.607-0.441c0.205-0.167,0.41-0.338,0.612-0.514c0.466-0.413,0.954-0.879,1.464-1.397l0.224,2.953
				l-0.659,0.501c-0.36,0.272-0.728,0.545-1.102,0.817c-0.373,0.272-0.762,0.517-1.166,0.732s-0.826,0.391-1.266,0.527
				s-0.9,0.204-1.385,0.204c-0.482,0-0.889-0.35-1.219-1.048c-0.33-0.699-0.494-1.721-0.494-3.065c0-0.527,0.035-1.096,0.105-1.707
				s0.158-1.268,0.264-1.971h-0.211l-3.455,6.855c-0.176,0.36-0.373,0.606-0.593,0.738s-0.475,0.198-0.765,0.198
				c-0.36,0-0.65-0.077-0.87-0.23s-0.39-0.36-0.507-0.62c-0.119-0.259-0.199-0.554-0.238-0.883
				C206.756,23.409,206.736,23.068,206.736,22.717z"/>
			<path fill="#FFFFFF" d="M229.926,22.519c-0.844,0.492-1.596,0.923-2.254,1.292c-0.66,0.369-1.246,0.677-1.761,0.923
				c-0.514,0.246-0.972,0.431-1.371,0.554s-0.763,0.185-1.087,0.185c-0.668,0-1.258-0.202-1.768-0.606s-0.936-0.986-1.278-1.747
				c-0.343-0.76-0.6-1.681-0.771-2.762c-0.171-1.081-0.257-2.298-0.257-3.652c0-0.527,0.021-1.09,0.066-1.688
				c0.043-0.598,0.105-1.191,0.184-1.78c-0.264-0.035-0.468-0.068-0.612-0.099c-0.146-0.031-0.3-0.062-0.462-0.093
				c-0.162-0.03-0.369-0.063-0.619-0.099c-0.251-0.035-0.613-0.079-1.088-0.132c-0.211-0.026-0.373-0.077-0.488-0.151
				c-0.113-0.075-0.197-0.163-0.25-0.264s-0.084-0.207-0.092-0.316c-0.01-0.11-0.014-0.205-0.014-0.284
				c0-0.176,0.086-0.31,0.257-0.402c0.172-0.093,0.392-0.161,0.659-0.205c0.269-0.044,0.563-0.068,0.884-0.073
				c0.32-0.004,0.628-0.002,0.923,0.007c0.294,0.009,0.558,0.016,0.791,0.02c0.232,0.005,0.393-0.002,0.48-0.02
				c0.238-1.187,0.539-2.335,0.903-3.447s0.773-2.101,1.227-2.967c0.452-0.865,0.946-1.56,1.483-2.083
				c0.535-0.522,1.098-0.784,1.688-0.784c0.377,0,0.723,0.105,1.034,0.316s0.578,0.492,0.798,0.844s0.389,0.763,0.508,1.232
				c0.118,0.471,0.178,0.96,0.178,1.47c0,0.431-0.062,0.886-0.185,1.365s-0.29,0.967-0.501,1.463c-0.211,0.497-0.459,1-0.745,1.51
				s-0.587,1.015-0.903,1.516c0.08,0.009,0.211,0.016,0.396,0.02c0.184,0.004,0.396,0.011,0.639,0.02s0.504,0.02,0.785,0.033
				c0.281,0.013,0.553,0.024,0.816,0.033s0.51,0.018,0.738,0.026s0.418,0.018,0.567,0.026c0.176,0.009,0.304,0.097,0.382,0.264
				c0.08,0.167,0.119,0.378,0.119,0.633c0,0.308-0.088,0.558-0.264,0.751s-0.369,0.29-0.58,0.29h-5.063
				c-0.255,0.352-0.512,0.697-0.771,1.035s-0.498,0.644-0.719,0.916c-0.035,0.545-0.065,1.081-0.092,1.608
				c-0.009,0.229-0.018,0.464-0.026,0.705c-0.009,0.242-0.018,0.481-0.026,0.719s-0.016,0.466-0.02,0.686
				c-0.005,0.22-0.007,0.422-0.007,0.606c0,0.475,0.044,0.875,0.132,1.2s0.215,0.591,0.383,0.797
				c0.166,0.207,0.371,0.356,0.612,0.448c0.241,0.093,0.513,0.139,0.812,0.139c0.184,0,0.415-0.044,0.691-0.132
				c0.277-0.088,0.58-0.208,0.91-0.362c0.329-0.154,0.676-0.336,1.041-0.547s0.726-0.442,1.081-0.692
				c0.356-0.251,0.696-0.515,1.022-0.791c0.324-0.277,0.619-0.561,0.883-0.851V22.519z M225.707,5.829
				c0-0.097-0.007-0.204-0.02-0.323c-0.014-0.118-0.042-0.23-0.086-0.336s-0.112-0.193-0.204-0.264
				c-0.093-0.07-0.222-0.105-0.39-0.105c-0.229,0-0.459,0.202-0.691,0.606c-0.233,0.404-0.457,0.921-0.673,1.549
				c-0.216,0.629-0.417,1.321-0.606,2.077s-0.362,1.49-0.521,2.202c0.132,0.018,0.264,0.033,0.396,0.046
				c0.132,0.014,0.268,0.029,0.408,0.046c0.264-0.448,0.539-0.934,0.824-1.457s0.543-1.037,0.771-1.543
				c0.229-0.505,0.418-0.978,0.566-1.417C225.633,6.47,225.707,6.11,225.707,5.829z"/>
			<path fill="#FFFFFF" d="M229.096,20.41c0.492-0.422,0.892-0.773,1.199-1.055s0.571-0.538,0.791-0.771
				c0.22-0.232,0.42-0.468,0.6-0.705s0.394-0.519,0.64-0.844s0.545-0.723,0.896-1.193c0.352-0.47,0.809-1.057,1.371-1.76
				c0.114-0.158,0.241-0.312,0.382-0.461s0.297-0.284,0.469-0.402c0.172-0.119,0.359-0.215,0.566-0.29s0.438-0.112,0.692-0.112
				c0.422,0,0.747,0.046,0.976,0.139c0.229,0.092,0.396,0.204,0.501,0.336s0.167,0.271,0.185,0.415
				c0.018,0.146,0.026,0.271,0.026,0.376c0,0.211-0.083,0.444-0.251,0.699c-0.166,0.255-0.352,0.501-0.553,0.738
				c-0.203,0.237-0.395,0.455-0.574,0.653c-0.18,0.197-0.283,0.345-0.31,0.441c0,0.272,0.021,0.521,0.06,0.745
				c0.039,0.224,0.092,0.444,0.158,0.659s0.134,0.444,0.204,0.686s0.138,0.521,0.204,0.837s0.119,0.681,0.158,1.094
				s0.06,0.901,0.06,1.463c0.316-0.211,0.657-0.402,1.022-0.573c0.363-0.172,0.744-0.35,1.14-0.534s0.802-0.389,1.22-0.613
				c0.417-0.224,0.837-0.494,1.259-0.811l0.013,2.953c-0.545,0.422-1.176,0.817-1.891,1.187c-0.717,0.369-1.469,0.694-2.256,0.976
				c-0.786,0.281-1.582,0.503-2.385,0.666c-0.805,0.162-1.567,0.244-2.288,0.244c-0.519,0-1.002-0.048-1.45-0.145
				s-0.842-0.248-1.18-0.455c-0.339-0.206-0.613-0.477-0.824-0.811s-0.338-0.738-0.383-1.213c-0.123,0.026-0.244,0.044-0.361,0.053
				c-0.119,0.009-0.236,0.013-0.35,0.013c-0.141,0-0.273-0.004-0.396-0.013s-0.229-0.042-0.316-0.099s-0.158-0.149-0.211-0.277
				c-0.053-0.127-0.078-0.31-0.078-0.547c0-0.211,0.053-0.406,0.158-0.587c0.105-0.18,0.229-0.34,0.369-0.481
				s0.281-0.264,0.422-0.369S229.025,20.471,229.096,20.41z M230.783,22.097c0.105,0,0.221,0.066,0.35,0.198
				c0.127,0.132,0.273,0.277,0.441,0.435c0.166,0.158,0.359,0.303,0.58,0.435c0.219,0.132,0.47,0.198,0.751,0.198
				c0.343,0,0.626-0.057,0.851-0.171s0.402-0.266,0.533-0.455c0.133-0.189,0.225-0.409,0.277-0.659
				c0.053-0.251,0.079-0.512,0.079-0.785c0-0.237-0.016-0.479-0.046-0.725c-0.031-0.246-0.07-0.481-0.119-0.705
				c-0.049-0.225-0.102-0.436-0.158-0.633c-0.057-0.198-0.107-0.367-0.151-0.508L230.783,22.097z"/>
		</g>
	</g>
</g>
</svg>
